<svg
  xmlns="http://www.w3.org/2000/svg"
  viewBox="0 0 1200 630"
  role="img"
  aria-labelledby="title desc"
>
  <title id="title">Abstract network routing illustration</title>
  <desc id="desc">
    A quiet technical illustration of two network routes flowing into an audit
    surface.
  </desc>
  <rect width="1200" height="630" fill="#ffffff" />
  <path
    d="M146 438c112-180 237-252 374-216 91 24 157 85 251 73 82-10 149-69 283-171"
    fill="none"
    stroke="#2563eb"
    stroke-width="5"
    stroke-linecap="round"
  />
  <path
    d="M146 438c99-77 196-89 292-36 110 61 196 67 284 18 78-44 143-119 332-104"
    fill="none"
    stroke="#14b8a6"
    stroke-width="3"
    stroke-linecap="round"
    opacity=".72"
  />
  <path
    d="M146 438c167-24 268 3 361 82 112 95 281 79 547-48"
    fill="none"
    stroke="#0f172a"
    stroke-width="2"
    stroke-linecap="round"
    opacity=".18"
  />
  <g fill="#fff" stroke="#2563eb" stroke-width="4">
    <circle cx="146" cy="438" r="20" />
    <circle cx="520" cy="222" r="18" />
    <circle cx="771" cy="295" r="18" />
    <circle cx="1054" cy="124" r="20" />
  </g>
  <g transform="translate(704 346)">
    <rect width="356" height="142" rx="18" fill="#f8fafc" stroke="#dbe3ef" />
    <path
      d="M42 96h62l32-40 48 58 39-30h91"
      fill="none"
      stroke="#2563eb"
      stroke-width="4"
      stroke-linecap="round"
      stroke-linejoin="round"
    />
    <g fill="#cbd5e1">
      <rect x="42" y="32" width="78" height="8" rx="4" />
      <rect x="42" y="52" width="132" height="8" rx="4" />
      <rect x="238" y="32" width="76" height="8" rx="4" />
      <rect x="238" y="52" width="48" height="8" rx="4" />
    </g>
  </g>
  <g opacity=".12" fill="#2563eb">
    <circle cx="270" cy="156" r="8" />
    <circle cx="310" cy="126" r="5" />
    <circle cx="374" cy="178" r="6" />
    <circle cx="900" cy="196" r="7" />
    <circle cx="964" cy="164" r="5" />
  </g>
</svg>
